<svg width="64" height="64" viewBox="0 0 64 64" fill="none" xmlns="http://www.w3.org/2000/svg">
<path d="M39.4278 34.1387L46.1312 31.6988C47.8734 31.0647 48.7717 29.1383 48.1376 27.3961C47.5034 25.6539 45.5771 24.7556 43.8349 25.3897L34.1252 28.9238C31.2167 29.9824 31.5344 26.7409 29.2381 20.4318C26.9418 14.1227 23.3179 11.8692 20.9224 12.7412C18.5269 13.6131 19.1668 16.506 20.1715 19.2662C21.1761 22.0264 22.4678 25.5753 22.3968 27.8339V27.8339C22.2944 31.0878 19.7711 33.6822 18.5161 36.686C17.224 39.7786 16.4237 44.3309 19.1016 49.4529C22.8486 56.6199 28.7908 59.4448 35.3835 57.0453L50.6542 51.4872C52.3964 50.8531 53.2947 48.9267 52.6606 47.1845C52.0265 45.4423 50.1001 44.544 48.3579 45.1781L43.6261 46.9003L50.7238 44.317C52.466 43.6829 53.3643 41.7565 52.7302 40.0143C52.0961 38.2721 50.1697 37.3738 48.4275 38.0079L41.3298 40.5913L50.7934 37.1468C52.5356 36.5127 53.4339 34.5863 52.7998 32.8441C52.1657 31.1019 50.2393 30.2036 48.4971 30.8377L39.8221 33.9951" stroke="#200020" stroke-width="2" stroke-linecap="round" stroke-linejoin="round"/>
<path d="M14.9729 18.4789L10.2411 20.2012" stroke="#DA0081" stroke-linecap="round" stroke-linejoin="round"/>
<path d="M33.9 11.5903L29.1682 13.3125" stroke="#DA0081" stroke-linecap="round" stroke-linejoin="round"/>
<path d="M17.7649 4.06605L19.4872 8.79785" stroke="#DA0081" stroke-linecap="round" stroke-linejoin="round"/>
<path d="M27.3908 4.4866L25.2627 9.05029" stroke="#DA0081" stroke-linecap="round" stroke-linejoin="round"/>
<path d="M10.6614 10.5755L15.2251 12.7036" stroke="#DA0081" stroke-linecap="round" stroke-linejoin="round"/>
</svg>